PathFileType	4	(X/Y/Z)	C:/Users/beibeiliu/ov580/test_trc/User3\sequence.29_training_dense_right.trc
DataRate	CameraRate	NumFrames	NumMarkers	Units	OrigDataRate	OrigDataStartFrame	OrigNumFrames
120	120	8	19	mm	120	52	128
Frame#	Time	ThumbCMC			ThumbMCP			ThumbIP			ThumbTip			IndexMCP			IndexPIP			IndexTip			MiddleMCP			MiddlePIP			MiddleTip			RingMCP			RingPIP			RingTip			PinkyMCP			PinkyPIP			PinkyTip			BackHand1			BackHand2			BackHand3	
		X0	Y0	Z0	X1	Y1	Z1	X2	Y2	Z2	X3	Y3	Z3	X4	Y4	Z4	X5	Y5	Z5	X6	Y6	Z6	X7	Y7	Z7	X8	Y8	Z8	X9	Y9	Z9	X10	Y10	Z10	X11	Y11	Z11	X12	Y12	Z12	X13	Y13	Z13	X14	Y14	Z14	X15	Y15	Z15	X16	Y16	Z16	X17	Y17	Z17	X18	Y18	Z18	
51	0.425	147.567	25.2468	9.46064	140.057	8.88538	-24.6187	144.634	-5.60903	-48.1947	166.919	-15.6371	-62.6655	168.558	59.6537	-56.2785	159.902	57.8315	-87.3946	145.544	31.4554	-101.883	195.116	61.6654	-54.3067	195.174	69.4978	-87.0455	183.086	43.3679	-116.367	213.693	43.4678	-54.1307	208.298	39.1186	-87.7094	196.112	8.32186	-93.6573	222.23	22.0931	-48.9199	223.081	9.84801	-71.0523	201.993	-14.0288	-78.3953	210.544	41.9265	-9.35328	215.642	36.3543	21.2116	181.259	52.8274	8.63966	
52	0.433333	149.857	26.7729	7.57197	138.543	6.3123	-22.7983	144.309	-8.23793	-48.3542	158.997	-21.7867	-63.5804	174.17	60.2488	-58.8401	163.775	63.7731	-88.5831	155.41	41.5083	-110.407	202.833	59.5229	-55.9577	200.522	65.6029	-87.027	191.933	38.7327	-114.131	212.438	37.2491	-59.2717	207.767	24.4854	-86.1475	189.067	-4.70718	-81.3959	219.449	13.7166	-48.6574	211.257	-1.46191	-70.6254	191.377	-22.5125	-65.2005	215.689	36.5488	-7.67	213.122	33.0107	24.3124	186.217	48.6441	7.61648	
53	0.441667	150.581	25.109	8.54189	136.304	4.50993	-20.0333	136.721	-11.2651	-43.7823	151.4	-26.5221	-65.909	175.009	57.4136	-54.4465	171.061	64.9782	-82.8481	162.537	55.3153	-109.238	200.715	55.4485	-55.2391	203.734	56.6693	-91.7778	191.551	28.8288	-110.536	213.677	28.9022	-61.7191	205.674	11.9686	-84.0365	181.24	-10.2112	-69.6435	220.481	6.16407	-47.6998	211.171	-12.2449	-66.1318	187.487	-27.4856	-58.1448	216.02	34.286	-4.83925	214.598	31.7766	23.4285	184.998	50.1745	7.44899	
54	0.45	153.086	23.1683	9.80356	138.938	4.7831	-15.6139	133.127	-10.0938	-43.956	138.395	-24.753	-60.6725	176.181	57.2527	-57.0881	168.612	66.321	-85.0179	162.262	62.2735	-108.12	201.27	50.611	-59.9986	198.105	44.3317	-94.2637	179.987	15.0561	-101.405	208.877	23.5089	-62.3116	202.815	2.32656	-81.1156	181.399	-16.4573	-63.9463	220.011	3.06619	-50.0389	208.141	-15.291	-65.8648	185.095	-33.6432	-54.2818	213.199	32.2761	-7.84761	215.801	28.4001	24.1578	185.781	48.6324	5.11207	
55	0.458333	152.477	23.1807	10.3849	137.374	7.6823	-17.3328	126.63	-5.44351	-39.3185	131.841	-20.1143	-62.1226	172.844	55.6049	-54.2307	169.179	63.9288	-81.7722	161.361	62.4985	-105.639	197.136	41.8974	-63.2418	188.512	30.1482	-93.1542	169.43	-4.61092	-84.0942	210.142	17.9371	-57.9219	194.26	-0.41578	-80.9353	178.626	-22.7815	-61.6931	221.11	1.98409	-43.8698	215.972	-16.4679	-66.7718	191.592	-30.54	-67.9884	214.341	29.6091	-6.71244	213.87	25.1762	25.5569	182.967	46.6722	6.99449	
56	0.466667	147.656	24.2547	11.9042	129.248	10.8958	-14.6562	120.069	1.59704	-39.7824	119.144	-11.5891	-60.8428	170.615	51.5706	-55.2813	162.352	59.7351	-79.395	152.671	54.6773	-108.018	188.541	33.0921	-64.7816	177.804	16.4391	-90.2416	156.65	-13.7571	-75.0497	202.96	18.0667	-56.27	196.79	-1.18995	-82.4127	176.335	-24.4319	-72.952	217.318	1.30693	-41.9404	221.758	-13.7264	-65.177	203.795	-32.6502	-77.7134	210.031	23.8096	-3.09589	210.259	22.6354	25.6919	182.587	41.8184	8.17549	
57	0.475	142.44	24.9308	14.1565	122.901	16.0841	-15.4659	110.643	7.15576	-42.1758	112.706	-4.97933	-57.9131	162.412	47.0728	-55.8313	154.869	48.1273	-85.4865	141.715	34.1487	-108.594	182.761	26.0666	-65.9625	165.482	8.90329	-91.0424	147.234	-19.966	-78.0695	200.742	13.6369	-55.7905	193.765	2.40601	-84.1292	169.069	-20.6346	-87.761	215.449	-5.00945	-42.6897	215.146	-12.5885	-64.9601	203.353	-31.6494	-86.369	203.006	22.807	-3.32291	206.443	18.5572	22.5772	179.795	39.2531	8.49026	
58	0.483333	141.995	29.7086	10.477	119.446	21.7227	-12.4676	105.824	14.4451	-37.9835	108.741	-1.71163	-59.5758	159.43	39.6734	-60.8354	142.571	36.36	-88.8351	126.484	19.0799	-102.676	179.798	23.7968	-66.1835	163.886	7.03107	-94.9592	133.78	-16.7736	-90.435	191.936	12.2222	-58.7559	186.463	-2.85432	-86.8172	164.705	-19.4158	-96.7134	204.556	-11.5859	-44.701	201.916	-21.4966	-68.3383	188.193	-36.517	-86.7171	201.257	14.7209	-5.1484	203.906	14.1638	25.0045	179.587	38.9768	7.90591	
